<svg xmlns="http://www.w3.org/2000/svg" viewBox="0 0 100 100" width="100" height="100">
  <defs>
    <linearGradient id="ssGrad" x1="0%" y1="0%" x2="100%" y2="100%">
      <stop offset="0%" stop-color="#002756" />
      <stop offset="100%" stop-color="#004D99" />
    </linearGradient>
    <linearGradient id="accentGrad" x1="0%" y1="0%" x2="100%" y2="100%">
      <stop offset="0%" stop-color="#F59E0B" />
      <stop offset="100%" stop-color="#FBBF24" />
    </linearGradient>
  </defs>
  <!-- Background Circle -->
  <circle cx="50" cy="50" r="48" fill="url(#ssGrad)" stroke="#38BDF8" stroke-width="2.5" />
  <!-- Inner subtle ring -->
  <circle cx="50" cy="50" r="43" fill="none" stroke="#FFFFFF" stroke-opacity="0.18" stroke-width="1.5" stroke-dasharray="4 2" />
  <!-- Open Book Base Accent -->
  <path d="M28 66 C38 61 48 64 50 67 C52 64 62 61 72 66 L72 70 C62 65 52 68 50 71 C48 68 38 65 28 70 Z" fill="url(#accentGrad)" />
  <!-- Stylized Monogram SS -->
  <text x="50" y="54" font-family="system-ui, -apple-system, sans-serif" font-size="34" font-weight="900" fill="#FFFFFF" text-anchor="middle" dominant-baseline="middle" letter-spacing="-1">SS</text>
  <!-- Small Star Sparkle -->
  <polygon points="50,18 52,24 58,25 53,29 55,35 50,31 45,35 47,29 42,25 48,24" fill="#FBBF24" />
</svg>
